<svg id="Layer_1" data-name="Layer 1" xmlns="http://www.w3.org/2000/svg" viewBox="0 0 521.35 736.58">
  <defs>
    <style>
      .cls-1 {
        fill: #fff;
      }

      .cls-2 {
        fill: #94bee5;
      }

      .cls-3 {
        fill: #603;
      }

      .cls-4 {
        fill: #ffe600;
      }
    </style>
  </defs>
  <title>AVFC_BADGE_LIGHT_RGB</title>
  <g id="_Group_" data-name="&lt;Group&gt;">
    <path id="_Path_" data-name="&lt;Path&gt;" class="cls-1" d="M0,0V557.46c0,85.6,100.9,113.63,174.57,134.09,14.75,4.1,28.68,8,40.7,11.94a105.6,105.6,0,0,1,20.92,10.15c8.59,5.65,17.39,15.22,17.48,15.31l7,7.63,7-7.63c0.09-.09,8.89-9.66,17.48-15.31A105.65,105.65,0,0,1,306,703.51c12.08-4,26-7.86,40.77-12,73.67-20.47,174.57-48.49,174.57-134.09V0H0Z"/>
    <path id="_Path_2" data-name="&lt;Path&gt;" class="cls-2" d="M502.38,557.46c0,71.18-89.09,95.93-160.68,115.81-15,4.16-29.12,8.09-41.68,12.23a123.74,123.74,0,0,0-25.3,12.29,110.16,110.16,0,0,0-14.05,11.35,110,110,0,0,0-14.05-11.35,123.41,123.41,0,0,0-25.34-12.3c-12.51-4.13-26.66-8.06-41.63-12.22C108.06,653.39,19,628.64,19,557.46V19H502.38V557.46Z"/>
    <polygon id="_Path_3" data-name="&lt;Path&gt;" class="cls-1" points="78.92 231.99 94.33 223.77 109.73 231.99 106.78 214.56 119.25 202.23 102.02 199.69 94.33 183.84 86.63 199.69 69.41 202.23 81.87 214.56 78.92 231.99"/>
    <g id="_Group_2" data-name="&lt;Group&gt;">
      <path id="_Path_4" data-name="&lt;Path&gt;" class="cls-3" d="M260.8,46.17c-4.73.33-9.63,0.49-15.17,0.49-6.2,0-12.39-.16-20.06-0.49-2,.82-2,4.24-0.65,5.55l5.22,1.14c3.91,1,5.22,1.63,5.22,2.77,0,1-.49,2.77-1.63,5.87-2,5.55-9,23.81-13,34.09l-6.2,15.33c-2,4.89-4.57,10.44-5.87,13.21l-5.38-13.7L188.88,73.73c-3.92-9.79-6.52-16.64-6.52-17.94,0-1.47,1.14-2.45,4.08-3.1l4.89-1c1-1.47,1.14-4.57-.16-5.55-9.95.33-17,.49-24.46,0.49-8.48,0-13.86-.33-22.18-0.49-1.47.82-2,3.75-.65,5.55l6.53,1.63c5.22,1.3,6,1.63,12.23,17.29L189,137c2.28,5.55,5.06,14.19,6.85,18.59a6.74,6.74,0,0,0,4.4,1.31A10.92,10.92,0,0,0,206,155.6c3.75-9.13,8-22,16.31-41.75l11.91-28.21c5.55-13.21,9.62-22.34,13.21-27.73,2.12-3.43,4.89-4.57,9.46-5.38l4.24-.81c1.14-1,1-4.89-.33-5.55"/>
      <path id="_Path_5" data-name="&lt;Path&gt;" class="cls-3" d="M332.88,46.66H296.39c-7.83,0-16-.16-23-0.49-1.79.65-1.79,4.73-.33,5.71l3.26,0.49c7.34,1.14,8.32,2.61,8.32,17.78v60.67c0,15.17-1,16.31-8.32,17.45l-5.38.82c-1.31,1-1.31,4.73,0,5.71,9.78-.33,17.94-0.49,25.44-0.49,7.83,0,15.82.16,25.93,0.49,1.14-1,1.14-4.73,0-5.71l-6-.82c-7.34-1-8.32-2.28-8.32-17.45v-22c0-4.4.16-4.89,4.57-4.89h14.81c8.64,0,10.43,1.31,12.07,9.13l0.81,3.92c1.14,1.47,5.22,1.3,6.2-.16-0.33-4.89-.49-10.93-0.49-17,0-6.2.16-12.23,0.49-17.45-1-1.47-5.05-1.63-6.2-.16l-0.81,3.91c-1.63,8-3.42,9.13-12.07,9.13H312.53c-4.4,0-4.57-.49-4.57-4.89V60.85c0-6.36,0-6.69,5.38-6.69h15c8.32,0,13.21,2,16,5.38,1.63,2.12,2.94,6,4.73,12.72,2,1.3,5.54,1.14,6.19-.65-0.33-10.93-.33-22.67-0.33-25.44-2.28.33-11.58,0.49-22,.49"/>
      <path id="_Path_6" data-name="&lt;Path&gt;" class="cls-3" d="M469.31,124.13c-4.4,11.09-13.53,25.28-33.27,25.28-19.57,0-38.33-17.45-38.33-49.91s19.41-47.95,37.51-47.95c15.82,0,26.26,8.15,30.66,23.32,1.14,1.47,5.54.82,6.2-1.14a217.15,217.15,0,0,1-2-25.44c-4.89-.33-17-4.24-33.6-4.24-17,0-33.59,4.89-45.17,14.52-11.25,9.3-19.73,23.32-19.73,43.22,0,20.22,9,33.76,20.71,42.73,11.58,8.64,27.89,12.39,43.87,12.39,12.72,0,24.3-3.59,33.1-6,2.29-3.75,5.06-13.54,6.2-25.6-1-2-4.89-2.45-6.2-1.14"/>
      <path id="_Compound_Path_" data-name="&lt;Compound Path&gt;" class="cls-3" d="M101.53,108.8H86.19c-4.08,0-4.89-.49-3.42-4.89l4.08-12.23c2.45-7.5,5.71-16.31,7-20.06,1.47,3.42,4.4,12.23,6.69,19.24l4.24,13.21c1.31,4.24.49,4.73-3.26,4.73m47.95,39.31c-6-1-7.5-4.73-10.93-14.51L116.37,69.65c-4.08-11.58-6-17.61-7.34-22.34-0.65-2.45-1.63-3.26-3.75-3.26C105,44,99.89,50.73,93,53.24L89,64.06c-0.55,1.53-1.19,3.2-1.89,5l-2,5.32,0,0.11L70.21,114.34c-4.4,11.75-7.5,19.57-10.28,26.1-2.77,6.36-6,7.66-9.95,8.15l-4.4.49c-1.14,1.3-1.31,4.73.49,5.71,7.5,0,11.25-.49,16.8-0.49,6.85,0.17,12.72.17,18.43,0.49,1.63-.81,1.3-4.57.33-5.71l-4.9-.82c-4.57-.82-6.69-1.79-6.69-2.77a19,19,0,0,1,1.14-5.87l6.36-18.92c1-3.1,1.47-3.26,5.38-3.26h19.41c5.71,0,7,.33,7.83,2.94l4.4,14c2,6,3.1,9.95,3.1,11.09,0,1-.65,2.12-4.4,2.77l-5.22.82c-1.79,1.3-1.47,4.73.32,5.71,7.5-.32,13.86-0.49,22-0.49,8.48,0,17.29.17,25.11,0.49,1.47-1,1.14-4.89.16-5.71Z"/>
    </g>
    <path id="_Compound_Path_2" data-name="&lt;Compound Path&gt;" class="cls-4" d="M458.14,312.11a17.14,17.14,0,0,0-4.48.48s19.26-18.91,19.26-48.46c0-13.44-3.18-18.61-3.72-18.61-1,0-1,8-7.21,14.19-4.48,4.48-11.52,4.94-15.44,8.86,3.79-8.11,1.07-19.09.53-19.09s-0.24,5.79-7.52,13.07c-4.64,4.64-15.41,8-24.21,16.8,3.73-8.59.48-17.65-.32-17.65S415,266.85,410,271.87c-4.67,4.67-13.68,7-20.43,13.76-9.34,9.34-7.68,23.52-7.68,28.61,0,0.46,0,.95.06,1.46-1.29.94-2.62,2-4,3.15a45.74,45.74,0,0,0-16.18,35.29c0,26.36,17.08,44.19,32.14,59.92,6.66,7,12.95,13.52,17.52,20.4,4.7,7.08,6.89,13.51,6.89,20.22a26.86,26.86,0,0,1-6,17.25c-4.26,5-10.23,7.54-17.74,7.54-12.95,0-22.47-4.84-32.55-10A171.2,171.2,0,0,0,346.21,462c-2.88-28.48-23.34-45.65-23.34-72.31,0-14.51,6.45-22.57,4-32.74,4.64,4.64,12.68,6.28,15.32,6.28a6.94,6.94,0,0,0,4.5-1.45,0.31,0.31,0,0,0,0-.49,16,16,0,0,1-6.49-12.82c0-8.8,3.28-15.52,3.28-24.24a21.49,21.49,0,0,0-5.76-14.88c4,4,11,6.32,14.4,6.32,3,0,4.68-.47,5.65-1.22a0.32,0.32,0,0,0,0-.52c-1.68-1-8.42-5.58-8.42-12.58,0-8,2.24-9.52,2.24-15.12a19.44,19.44,0,0,0-2.64-9.68,17.88,17.88,0,0,0,8.16,2.24c5,0,7.79-1.23,9.58-2.75a0.32,0.32,0,0,0-.19-0.56c-12.49-.95-10.78-29.36-22.56-39.81a15.6,15.6,0,0,0,3.12.28c4,0,9-3.48,10.78-6.76a0.32,0.32,0,0,0-.26-0.47c-22.54-1.15-29.73-51.09-80.56-41,2.65-3.75,7.51-6.88,9.26-7.94a0.33,0.33,0,0,0,0-.59c-2.29-.88-7.14-2.75-18.51-2.75a36.9,36.9,0,0,0-28.46,14.16c2.74-5.49-.61-12.51-3.71-15.92a0.32,0.32,0,0,0-.55.14,15.28,15.28,0,0,1-3.51,6.34c-9.16,9.16-25.6,15-25.6,34.08,0,0-5.36,3.44-12.64,8.4s-11.2,12.76-11.2,15.2c-2.76,1.46-14.32,9.93-23.54,19.14a0.63,0.63,0,0,0-.07.8,19.55,19.55,0,0,1,2.09,4.61,0.63,0.63,0,0,0,1,.27c1.25-1.16,3.74-3.39,4.86-3.74-2.08,2.08-2.76,4.56-2.76,7.71,0,6.92,15.4,16.66,16.36,15.7,0.66-.66-1.82-7.76.52-10.09,3.45-3.45,15.68-3.89,19.47-3.89s5.74,1.45,5.74,4.06c0,6.51-3.7,18.59-15.46,18.59-4.75,0-7.85-4.59-8.63-3.82s-0.17,7.57,1.38,9.89a7.7,7.7,0,0,0-1.32,4.81c0,8.41,13.9,19.19,15.33,17.76,1-1-2.87-10.45-.44-10.45,1.31,0,5,5.45,9.32,5.45a0.46,0.46,0,0,0,.34-0.11c0.69-.69-2.71-5.47-0.89-7.29,4.69-4.69,16.87-13.86,20-14.86,6.47-2.08,9.87,2.62,9.87,9,0,14.11-14.94,17-27.17,29.21S193.47,361,178.09,361c-2,0,11.37-3.71,15.19-17.05-40.16.3-47-22.13-79.12-26.43a2.48,2.48,0,0,0-.7-1.39c-0.84-.87-12.11-10.75-12.11-33,0-4.48-3-7.92-7.63-7.92h0c-1.41-3.13-5.27-9.49-13.31-9.49-7.63,0-9.57,3.55-9.12,4S75,269,79,272.95a13.29,13.29,0,0,1,3.58,6.74,6.36,6.36,0,0,0-1.51,4.1,9.52,9.52,0,0,0-7.79,2.84,17,17,0,0,0-8.64-2.07c-11,0-13.31,9.95-12.85,10.4s2.4-1.76,5.81-1.76c3.86,0,7.92,3.06,10.07,5a8,8,0,0,0,2,6.66s-5.29,1.61-6.19,9l-0.77.19c-14.64,4.1-11.86,15.51-11.25,15.51s1.36-4.91,8.08-4.91a24,24,0,0,1,5.7.64,11.55,11.55,0,0,0,10.67,6.24c3,0,5.87-.66,8.34-0.66,3.34,0,5.38,2,5.38,6.72,0,6.88-6.61,4.82-9.58,7.78-2,2-2.31,3.84-2.31,6.56,0,0.11,0,.23,0,0.35a9.91,9.91,0,0,1-2.89.45c-4.56,0-7.16-4.12-7.76-3.52-0.8.8,1.92,13.92,11.2,13.92a11.3,11.3,0,0,0,7-2,11.33,11.33,0,0,0,2.52.27c9.36,0,11.48-11.28,23.13-11.28s34,16.06,37.14,36.11a0.32,0.32,0,0,0,.52.2,13.6,13.6,0,0,0,4.8-10.39,247.79,247.79,0,0,1,21.37,19.13s-46.21,35.5-48.62,36.92c-2.08,1.22-3.07,1.75-5.63,1.75-6.51,0-8.56-10.92-18.91-10.92a7.62,7.62,0,0,0-4.74,1.53,20.39,20.39,0,0,0-4.12-.36c-12.21,0-14.45,16.43-13.28,16.43s2-4.21,7.84-4.21a11.61,11.61,0,0,1,2.28.25c0,3.15,1.22,6.1,3.26,7.68a10.53,10.53,0,0,0-5.22,5.15c-14.56.48-14.23,17.59-12.86,17.59,1,0,1.6-7.15,10-7.15a5.09,5.09,0,0,1,2.15.63c1.49,6.36,5.87,9.89,11,9.89-1.28,2.4-1.07,6.23.32,9.58-3.37,7,2.63,16.73,4.21,16.73,1.16,0-.27-6.18,2.4-10.24a7.35,7.35,0,0,0,1.77.22,12.42,12.42,0,0,0,10.76-6.37s0.44,6.75,7.15,7.43c1.42,6,5.27,11.06,6.52,11.06,0.87,0-.82-8.17,1.66-13.37,9.54-9.54,2-21.93,12-31.84,11.42-11.42,39.5-21.61,62.56-22.55,8.34,9.4,19.91,23.58,25.24,27.26,0,0-.23.27-0.55,0.59-14.23,14.23-40.72,1.76-54.64,15.68-5.52,5.52-6.27,10.61-14.06,10.61a9.92,9.92,0,0,1-6.26-2.39,0.32,0.32,0,0,0-.52.14,12.42,12.42,0,0,0,3.33,11.39c4.8,4.8,10.74,3.92,12.3,3.09-3.84,5.19-12.27,4.92-17.16,2.08a0.32,0.32,0,0,0-.47.36c3.89,14.83,19.25,12,19.25,12,3.2,15.93,19,22.56,19,33.22a12.88,12.88,0,0,1-3.75,8.87c-6,6-19.21,9.95-33.61,9.95-23.2,0-23.52-16.46-36.17-16.46a19.82,19.82,0,0,0-4.77.58,14.68,14.68,0,0,0-10.74-4.46c-7.72,0-12.2,8.74-11.16,9.79,0.65,0.65,2.88-2.11,6.36-2.11a5.68,5.68,0,0,1,4.73,3.79,19.73,19.73,0,0,0-1.65,2.47,19.18,19.18,0,0,0-4.88-.55c-14.53,0-14.28,16.8-12.76,16.8,0.88,0,2.79-6.23,9.83-5.45A18.35,18.35,0,0,0,91.88,577q0,0.71.05,1.4A11.56,11.56,0,0,0,86,588c0,6.08,1.15,9.17,2.08,9.17s2-7,7.37-9.33a18.46,18.46,0,0,0,9.92,6.84,43.4,43.4,0,0,0-.95,9.78c0,5.62,1.76,13.16,2.93,13.16s1.78-8.71,5.57-12.09a18.57,18.57,0,0,0,5.61,3.7,17.25,17.25,0,0,0,7.21,1.46h0.51c19.4-.31,31.77-18.09,46.36-18.09,8.14,0,8.29,7.62,5.32,10.9,22,0,28.35-16.78,41.8-16.78,6.83,0,12.95,3.63,19.19,3.58,4,0,9.16-1.36,12-7.24a0.32,0.32,0,0,0-.29-0.46c-10.3.11-14.65-4.76-15.46-7.8,18.43,7.46,23.83-4.09,24.9-7.13a0.32,0.32,0,0,0-.42-0.4,9.57,9.57,0,0,1-3.54.72c-9.95,0-20.69-10.06-20.69-24,0-13.18,9.15-20.63,17.84-23,6.87-19.44,16.53-23.36,12.8-35.49,0,0,0-.1,0-0.12a0.07,0.07,0,0,1,.06,0,22.17,22.17,0,0,1,3,9.46c0,12.82-12.31,20.2-12.31,40.51,0,22.95,17.87,22,17.87,37.38,0,6.14-2.33,9.62-3.23,10.74a0.32,0.32,0,0,0,.2.51c2.19,0.34,10.54.6,18.64-12.75,10.66,5.52,7.8,14.8,7,16.91a0.32,0.32,0,0,0,.31.43C311.52,588.15,316,569.3,316,569.3c12.27-1.34,21.93,2.89,21.93,8,0,13.28-24.81,38.18-43,38.18-6.76,0-9.11-7-15-7a7.77,7.77,0,0,0-7.68,4.69,18.09,18.09,0,0,0-7.12-1.56c-5.77,0-10.85,3.25-12.61,10.36-7.8,2.57-9.41,14.68-8.63,15.47,0.61,0.61,4.42-5.81,10.83-4.27a24.06,24.06,0,0,0,3.45,4.32,17.12,17.12,0,0,0-4.17,3.07c-7.66,7.66-5.73,16.23-5,17s2.18-3,4.31-5.11c1.68-1.68,4.13-3.45,7.28-3.22,2.62,5,8.26,6.22,11.86,6.22-0.44,4.45-.38,12,0.72,13.06,0.82,0.82,4.29-6.41,9.55-10.2,2.76,1.73,6.26,3.32,9.78,3.32,10.13,0,19.15-4.75,26.45-12.05,10.65-10.65,18-27.73,27-27.73,5.68,0,4.57,5.16,4.4,5.79,14.57,0,8.36-17.79,36.06-45.48,3.39-3.39,7.33-6.34,7.85-9.7a0.32,0.32,0,0,0-.48-0.32c-2.43,1.56-8.64,2-11.43-.75,0,0,22.42-11.15,23-27.81a0.32,0.32,0,0,0-.52-0.26c-6,4.77-17.25,3.67-17.25,3.67,5.22-4.21,9.08-16.15,3.68-27.45a0.32,0.32,0,0,0-.59,0c-5.22,12.32-15.8,16.54-25.46,16.54-13.82,0-25.52-11.12-25.52-26.31,0-13,4.21-18.84,5.93-30.45,2.95,1.28,6,2.82,9.21,4.46,10.79,5.48,23,11.7,39.8,11.7a41.17,41.17,0,0,0,17.25-3.58,36.44,36.44,0,0,0,12.66-9.58,42.48,42.48,0,0,0,9.79-27.62c0-21.56-14.67-36.87-28.85-51.68-7-7.33-14.28-14.91-19.5-23-5.59-8.7-8.19-16.9-8.19-25.81s5-18.46,11.87-24.62c0,0,15.28,8.51,32.83,8.51s28.06-12.88,28.06-12.88c8.08-8.08,16.72-6.8,17.6-7.68S464.44,312.11,458.14,312.11ZM208,235.91c-2.88,2.87-2.5,6.46-5.08,9a6.29,6.29,0,0,1-10.73-4.44c0-3.23,3.67-6.08,13.85-6.08,1.19,0,2.62.06,4,.15A5.22,5.22,0,0,0,208,235.91Z"/>
  </g>
</svg>
